<svg xmlns="http://www.w3.org/2000/svg" viewBox="0 0 598 406.67"><defs><style>.cls-1{fill:none;}.cls-2{fill:#13506a;}.cls-3{fill:#59aec9;}.cls-4{fill:#ec6a55;}</style></defs><title>Layer 5</title><g id="Layer_2" data-name="Layer 2"><g id="Layer_5" data-name="Layer 5"><polygon class="cls-1" points="228 260.44 237.23 263.52 237.23 263.52 228 260.44 228 260.44"/><polygon class="cls-1" points="325.59 177.74 444 178.43 444 178.33 325.67 177.67 325.59 177.74"/><polygon class="cls-2" points="228 288.67 228 264 228 260.44 228 260.44 237.23 263.52 324.82 177.74 325.59 177.74 325.67 177.67 444 178.33 582.33 29.33 582.48 61 598 60.67 598 1.67 538 0 537.33 15.67 574.33 15.67 437.67 164.67 320.67 164.67 233.67 249 228 247.33 123.5 211.83 0.53 288.67 0 288.67 0 406.67 228 406.67 228 289 228 288.67"/><polygon class="cls-3" points="444 264 444 178.43 325.59 177.74 324.82 177.74 237.23 263.52 237.23 263.52 228 260.44 228 264 228 288.67 228 289 228 406.67 444 406.67 444 267.33 444 264"/><polygon class="cls-4" points="582.33 29.33 444 178.33 444 178.43 444 264 444 267.33 444 406.67 580.25 406.67 583 406.67 585.75 406.67 585.75 61.03 582.48 61.03 582.48 61 582.33 29.33"/></g></g></svg>